<svg width="1920" height="401" viewBox="0 0 1920 401" fill="none" xmlns="http://www.w3.org/2000/svg">
<rect width="1920" height="401" fill="#3c63ef"/>
<path fill-rule="evenodd" clip-rule="evenodd" d="M0 236.209L19 230.487C38 225.337 75 214.465 113 225.337C151 236.209 188 269.396 226 274.546C264 280.268 301 257.952 339 236.209C376 214.465 414 192.15 452 164.685C489 137.219 527 104.605 565 98.8826C602 93.1607 640 115.476 678 159.535C715 203.022 753 269.396 791 296.861C828 324.326 866 312.882 904 274.546C941 236.209 979 170.407 1016 187C1054 203.022 1092 302.011 1129 324.326C1167 346.07 1205 291.139 1242 285.417C1280 280.268 1318 324.326 1355 335.198C1393 346.07 1431 324.326 1468 312.882C1506 302.011 1544 302.011 1581 269.396C1619 236.209 1656 170.407 1694 137.219C1732 104.605 1769 104.605 1807 115.476C1845 126.348 1882 148.091 1901 159.535L1920 170.407V401H1901C1882 401 1845 401 1807 401C1769 401 1732 401 1694 401C1656 401 1619 401 1581 401C1544 401 1506 401 1468 401C1431 401 1393 401 1355 401C1318 401 1280 401 1242 401C1205 401 1167 401 1129 401C1092 401 1054 401 1016 401C979 401 941 401 904 401C866 401 828 401 791 401C753 401 715 401 678 401C640 401 602 401 565 401C527 401 489 401 452 401C414 401 376 401 339 401C301 401 264 401 226 401C188 401 151 401 113 401C75 401 38 401 19 401H0V236.209Z" fill="#4e54e1"/>
</svg>
